<svg width="329" height="422" viewBox="0 0 329 422" fill="none" xmlns="http://www.w3.org/2000/svg">
<g clip-path="url(#clip0)">
<path d="M71.25 292.44C69.3219 293.457 67.7073 294.981 66.5798 296.847C65.4522 298.712 64.8542 300.85 64.85 303.03L73.55 368.34C66.99 369.47 59.81 369.63 51.87 370.72C42.71 371.98 33.01 370.98 24.92 366.26C21.3642 364.166 18.1836 361.493 15.5099 358.35C9.94994 351.9 6.40999 343.9 4.12999 335.76C1.72999 327.19 -0.61004 317.48 3.90996 309.18C6.75996 303.94 11.83 300.18 17.24 297.69C25.7011 293.695 34.8887 291.47 44.24 291.15C42.96 288.343 41.6666 285.377 40.36 282.25C24.46 244.25 70.81 199.51 79.73 191.38L79.2599 190.89C75.0145 186.473 71.2532 181.616 68.04 176.4C59.29 162.13 60.37 144.1 59.97 127.56C59.91 125.02 59.97 122.47 60.15 119.93C61.0603 109.408 63.7237 99.1131 68.03 89.47C29.03 73.36 47.0299 33.57 75.1999 31.1C92.4499 29.59 100.36 40.98 103.34 49.97C112.607 44.5901 122.649 40.6707 133.11 38.35C135.68 31.35 140.97 21.35 150.28 20.62C164.72 19.53 174.28 15.53 168.72 9.12C168.72 9.12 183.58 11.92 179.36 23.12C175.81 32.53 173.17 34.3199 172.42 34.6499C174.71 33.8799 194.92 27.1699 197.17 29.6499C197.17 29.6499 192.45 34.3399 192.74 40.1599C203.695 43.4626 213.994 48.6393 223.18 55.46C225.43 48.53 234.24 31.8599 256.27 35.9199C283.57 40.9199 294.76 82.6899 254.85 93.7C258.62 102.48 260.22 113.01 260.63 124.15C261.35 143.6 261.34 166.83 253.34 181.75C250.95 186.297 248.138 190.609 244.94 194.63C258.66 207.96 295.21 247.85 280.82 282.21C279.487 285.39 278.153 288.373 276.82 291.16C292.22 293.16 310.89 293.03 319.36 308.84C322.6 314.84 322.83 322.21 321.28 328.9C319.73 335.59 316.52 341.83 313.15 347.83C308.15 356.73 301.94 365.94 292.34 369.47C279.19 374.32 263.52 368.12 250.44 365.27L254.73 320.21L256.36 303.07C256.36 299.887 255.096 296.835 252.845 294.585C250.595 292.334 247.543 291.07 244.36 291.07H76.85C73.6674 291.07 70.6151 292.334 68.3647 294.585C66.1142 296.835 64.85 299.887 64.85 303.07L73.55 368.38" fill="#84D4F3"/>
<path d="M282.4 291.83C280.5 291.62 278.63 291.41 276.81 291.17C278.143 288.383 279.477 285.4 280.81 282.22C295.2 247.86 258.65 207.97 244.93 194.64C248.128 190.62 250.94 186.307 253.33 181.76C261.33 166.84 261.33 143.61 260.62 124.16C260.21 113.02 258.62 102.49 254.84 93.71C257.33 93.0317 259.767 92.1693 262.13 91.1301L236.36 46.18L230.97 42.82C227.428 46.3779 224.758 50.7077 223.17 55.47C216.776 50.7198 209.824 46.7704 202.47 43.71L201.99 43.96C201.99 43.96 246.99 77.96 247.58 110.48C248.17 143 261.21 210.64 161.75 221.73H141.75L115.75 213.73L128.08 221.73C128.08 221.73 167.92 242.57 211.98 233.93C249.67 226.53 264.54 251.64 263.57 260.71C262.6 269.78 251.76 291.22 251.76 291.22L258.99 302.95L257.36 320.1L282.4 291.83Z" fill="#68CCE3"/>
<path d="M246.37 289.95H203.55C206.19 285.47 213.55 279.86 212.3 276.49C207.6 264.05 197.55 254.15 183.85 248.33C174.313 244.202 163.882 242.571 153.54 243.59C144.24 244.59 136.45 248.59 129.14 254.32C127.221 255.838 125.382 257.453 123.63 259.16C118.461 264.193 114.009 269.913 110.4 276.16C108.56 279.38 118.2 285.49 121.66 290H78.85C75.6674 290 72.6151 291.264 70.3647 293.515C68.1142 295.765 66.85 298.817 66.85 302L80.85 407.14C80.85 410.323 82.1142 413.375 84.3647 415.625C86.6151 417.876 89.6674 419.14 92.85 419.14H236.37C239.553 419.14 242.605 417.876 244.855 415.625C247.106 413.375 248.37 410.323 248.37 407.14L258.37 302C258.377 300.42 258.071 298.854 257.471 297.393C256.871 295.931 255.988 294.602 254.873 293.482C253.758 292.363 252.433 291.474 250.974 290.868C249.515 290.262 247.95 289.95 246.37 289.95Z" fill="#BCE5F3"/>
<path d="M46.43 323.91C41.38 314.39 27.88 305.43 17.06 310.91C4.38001 317.34 16.06 338.71 21.18 346.4C24.18 350.9 27.68 355.4 32.59 357.66C41.46 361.77 48.33 356.17 49.74 347.37C50.9356 340.465 50.2446 333.365 47.74 326.82C47.3521 325.829 46.9149 324.858 46.43 323.91Z" fill="#BCE5F3"/>
<path d="M305.53 308.38C294.26 303.89 281.61 314.02 277.44 323.95C277.023 324.93 276.659 325.931 276.35 326.95C274.459 333.692 274.421 340.819 276.24 347.58C278.44 356.23 285.78 361.19 294.24 356.3C298.93 353.59 302.01 348.82 304.6 344.06C309.02 335.97 318.73 313.65 305.53 308.38Z" fill="#BCE5F3"/>
<path d="M150.95 210.37C160.13 211.15 169.365 210.98 178.51 209.86C187.94 208.86 199.56 205.86 204.24 197.77C206.51 193.85 206.4 189.14 205.24 184.86C202.07 173.53 192.16 162.81 181.32 156.37C175.707 152.851 169.234 150.945 162.61 150.86C152.61 150.96 143.12 158.31 136.22 165.26C134.77 166.73 133.43 168.17 132.22 169.53C124.34 178.39 118.06 193.37 127.83 202.96C133.22 208.28 143.19 209.6 150.95 210.37Z" fill="#BCE5F3"/>
<path d="M277.43 287.9C292.84 289.9 313.53 290.03 322 305.84C325.24 311.84 325.47 319.21 323.92 325.9C322.37 332.59 319.17 338.76 315.8 344.74C310.8 353.64 304.59 362.85 294.99 366.39C281.84 371.23 266.17 365.04 253.09 362.18" stroke="#307C9C" stroke-width="8" stroke-miterlimit="10"/>
<path d="M257.52 90.7C297.43 79.7 286.24 37.9499 258.94 32.9199C236.94 28.8599 227.84 45.33 225.58 52.26" stroke="#307C9C" stroke-width="8" stroke-miterlimit="10"/>
<path d="M105.27 48.83C102.27 39.83 95.12 29.58 77.87 31.09C49.68 33.56 31.69 73.35 70.7 89.46" stroke="#307C9C" stroke-width="8" stroke-miterlimit="10"/>
<path d="M82.4 191.33C73.48 199.47 27.13 244.21 43.03 282.21C52.12 303.93 60.32 317.92 70.35 324.31" stroke="#307C9C" stroke-width="8" stroke-miterlimit="10"/>
<path d="M205.13 287.98C206.04 283.46 208.56 279.9 212.96 275.51C228.57 259.89 208.34 245.33 208.34 245.33" stroke="#307C9C" stroke-width="8" stroke-miterlimit="10"/>
<path d="M257.38 317.13C266.51 310.91 275.28 298.83 283.49 279.21C297.88 244.84 261.33 204.95 247.61 191.63" stroke="#307C9C" stroke-width="8" stroke-miterlimit="10"/>
<path d="M263.3 124.14C262.8 110.72 260.58 98.1399 254.92 88.5199C249.366 79.0564 242.524 70.4105 234.59 62.83C223.485 52.3058 210.065 44.5342 195.41 40.14C195.12 34.33 199.84 29.64 199.84 29.64C197.59 27.14 177.38 33.85 175.09 34.64C175.84 34.31 178.48 32.52 182.03 23.1C186.25 11.89 171.39 9.09998 171.39 9.09998C177 15.5 167.39 19.51 152.95 20.59C143.64 21.29 138.35 31.2999 135.78 38.3199C115.68 42.8799 97.0899 52.8399 83.4599 68.6499C71.9999 81.9499 64.0499 102.65 62.8199 119.91C62.6399 122.45 62.5799 124.993 62.6399 127.54C63.0399 144.07 61.9599 162.11 70.7099 176.37C73.9249 181.575 77.6863 186.423 81.93 190.83L82.3999 191.32C111.93 221.67 162.51 230.71 202.09 220.03C229.2 212.71 243.92 204.28 256.01 181.74C264.01 166.83 264.02 143.59 263.3 124.14Z" stroke="#307C9C" stroke-width="8" stroke-miterlimit="10"/>
<path d="M249.01 408.12L257.38 320.12L259.01 302.97C259.01 299.787 257.746 296.735 255.495 294.485C253.245 292.234 250.193 290.97 247.01 290.97H79.51C76.3274 290.97 73.2752 292.234 71.0248 294.485C68.7743 296.735 67.51 299.787 67.51 302.97L81.51 408.11C81.51 411.293 82.7743 414.345 85.0248 416.595C87.2752 418.846 90.3274 420.11 93.51 420.11H237.01C240.191 420.11 243.242 418.847 245.492 416.599C247.742 414.35 249.007 411.301 249.01 408.12Z" stroke="#307C9C" stroke-width="8" stroke-miterlimit="10"/>
<path d="M46.57 291.25C37.333 291.516 28.2516 293.695 19.9 297.65C14.49 300.16 9.41999 303.89 6.56999 309.14C2.04999 317.43 4.39003 327.14 6.79003 335.72C9.07003 343.86 12.61 351.85 18.17 358.3C20.8437 361.443 24.0242 364.116 27.58 366.21C35.67 370.93 45.37 371.94 54.53 370.68C62.47 369.58 69.65 369.43 76.21 368.29L67.51 302.98C67.5133 300.801 68.1098 298.664 69.2355 296.798C70.3613 294.933 71.9738 293.409 73.9 292.39" stroke="#307C9C" stroke-width="8" stroke-miterlimit="10"/>
<path d="M120.85 290.98C119.94 286.46 117.42 282.9 113.03 278.51C97.4099 262.89 117.65 248.33 117.65 248.33" stroke="#307C9C" stroke-width="8" stroke-miterlimit="10"/>
<path d="M163.63 151.02C170.251 151.106 176.72 153.012 182.33 156.53C193.17 162.97 203.08 173.69 206.25 185.02C207.45 189.3 207.57 194.02 205.25 197.93C200.57 206 188.96 209.01 179.52 210.02C170.379 211.139 161.146 211.31 151.97 210.53C144.2 209.76 134.24 208.44 128.81 203.12C119.04 193.53 125.33 178.55 133.2 169.69C134.4 168.33 135.74 166.88 137.2 165.42C144.13 158.47 153.6 151.12 163.63 151.02Z" stroke="#307C9C" stroke-width="4" stroke-miterlimit="10"/>
<path d="M111.44 276.17C122.04 258.23 139.53 244.95 161.04 244.49C182.55 244.03 203.87 257.24 212.7 277" stroke="#307C9C" stroke-width="4" stroke-miterlimit="10"/>
<path d="M279.02 324.55C283.41 314.86 296.02 304.68 306.79 308.62C319.42 313.24 309.24 335.04 304.68 343C302.01 347.66 298.86 352.36 294.22 355.12C285.84 360.12 278.89 355.59 277.06 347.35C275.52 340.783 275.796 333.921 277.86 327.5C278.2 326.5 278.58 325.52 279.02 324.55Z" stroke="#307C9C" stroke-width="4" stroke-miterlimit="10"/>
<path d="M48.6599 329.5C50.7236 335.921 51.0002 342.783 49.4599 349.35C47.6299 357.59 40.68 362.11 32.3 357.12C27.67 354.36 24.5199 349.66 21.8399 345C17.2799 337 7.10995 315.24 19.73 310.62C30.51 306.68 43.12 316.86 47.5 326.55C47.94 327.52 48.3199 328.5 48.6599 329.5Z" stroke="#307C9C" stroke-width="4" stroke-miterlimit="10"/>
<path d="M166.57 168.44C166.998 171.803 166.998 175.207 166.57 178.57C165.41 185.08 154.39 202.4 141.08 187.51" stroke="#307C9C" stroke-width="6" stroke-miterlimit="10" stroke-linecap="round"/>
<path d="M166.39 179.57C166.39 179.57 173.39 193.39 181.11 193.39C183.755 193.369 186.346 192.636 188.61 191.269C190.875 189.902 192.729 187.951 193.98 185.62" stroke="#307C9C" stroke-width="6" stroke-miterlimit="10" stroke-linecap="round"/>
<path d="M122.14 104.36C119.039 103.484 115.75 103.523 112.67 104.47C105.58 106.68 104.34 112.08 104.34 112.08" stroke="#307C9C" stroke-width="6" stroke-miterlimit="10" stroke-linecap="round"/>
<path d="M221.85 112.08C221.85 112.08 220.61 106.68 213.53 104.47C210.45 103.522 207.161 103.484 204.06 104.36" stroke="#307C9C" stroke-width="6" stroke-miterlimit="10" stroke-linecap="round"/>
<path d="M121.92 124.34C121.158 123.763 120.285 123.351 119.355 123.13C118.426 122.908 117.46 122.882 116.52 123.053C115.58 123.224 114.686 123.589 113.894 124.124C113.102 124.658 112.43 125.352 111.92 126.16C111.083 127.627 110.629 129.281 110.6 130.97C110.327 133.963 111.105 136.958 112.8 139.44C114.078 141.043 115.907 142.112 117.93 142.44C120.15 142.87 122.41 142.54 123.77 140.16C124.507 138.739 124.952 137.186 125.08 135.59C125.404 133.571 125.377 131.51 125 129.5C124.611 127.472 123.521 125.645 121.92 124.34Z" fill="#307C9C"/>
<path d="M152 156.38C151.59 161.61 162.17 170.32 168 170.05C171.61 169.88 180.92 156.4 178.63 153.57C177.06 151.69 152.41 151.16 152 156.38Z" fill="#307C9C"/>
<path d="M213.85 126.37C213.342 125.56 212.671 124.864 211.879 124.327C211.087 123.791 210.193 123.425 209.252 123.254C208.311 123.082 207.344 123.109 206.414 123.332C205.484 123.556 204.611 123.97 203.85 124.55C202.258 125.854 201.178 127.678 200.8 129.7C200.432 131.708 200.408 133.764 200.73 135.78C200.86 137.374 201.302 138.927 202.03 140.35C203.39 142.73 205.65 143.07 207.87 142.63C209.897 142.304 211.73 141.235 213.01 139.63C214.7 137.146 215.478 134.153 215.21 131.16C215.162 129.475 214.694 127.829 213.85 126.37Z" fill="#307C9C"/>
<path d="M71.3 49.1401C53.3 58.6901 63.4 76.3701 73.67 83.5901C76.2864 78.6445 79.4315 73.9974 83.05 69.7301C87.2014 64.905 91.8655 60.546 96.96 56.7301C92.67 49.2701 84.76 41.9901 71.3 49.1401Z" fill="#307C9C"/>
<path d="M258.57 49.16C245.1 42.02 237.19 49.29 232.9 56.79C237.9 60.57 242.61 65.88 246.82 70.79C250.427 74.7024 253.571 79.0176 256.19 83.65C266.46 76.39 276.55 58.72 258.57 49.16Z" fill="#307C9C"/>
<path d="M178.03 350.06C177.557 349.931 177.062 349.897 176.576 349.96C176.089 350.022 175.62 350.18 175.194 350.425C174.769 350.669 174.396 350.995 174.097 351.384C173.797 351.772 173.578 352.216 173.45 352.69C172.194 351.805 170.802 351.13 169.33 350.69C169.346 350.124 169.574 349.585 169.97 349.18C169.64 348.82 166.74 349.78 166.41 349.89C166.52 349.89 166.9 349.59 167.41 348.24C168.01 346.62 165.88 346.24 165.88 346.24C166.68 347.16 165.3 347.74 163.23 347.89C161.89 347.99 161.13 349.43 160.76 350.44C159.268 350.772 157.835 351.329 156.51 352.09C156.288 351.251 155.761 350.525 155.033 350.054C154.304 349.582 153.426 349.399 152.57 349.54C148.52 349.9 146.12 355.54 151.39 357.83C150.775 359.203 150.397 360.671 150.27 362.17C150.25 362.536 150.25 362.903 150.27 363.27C150.33 365.65 150.17 368.27 151.43 370.27C155.16 376.34 163.78 378.27 170.32 376.55C174.22 375.55 176.32 374.29 178.07 371.05C179.22 368.9 179.23 365.56 179.07 362.77C179.067 361.205 178.758 359.656 178.16 358.21C179.114 358.024 179.972 357.508 180.584 356.753C181.195 355.998 181.522 355.052 181.507 354.08C181.491 353.109 181.134 352.174 180.499 351.439C179.863 350.704 178.989 350.216 178.03 350.06Z" fill="#307C9C"/>
</g>
<defs>
<clipPath id="clip0">
<rect width="328.85" height="421.12" fill="white"/>
</clipPath>
</defs>
</svg>
